{
  "accessors": [
    {
      "bufferView": 2,
      "componentType": 5126,
      "count": 6679,
      "max": [
        2.187394142150879,
        0.8528562188148499,
        0.8533581495285034
      ],
      "min": [
        -2.396261215209961,
        0.13455919921398163,
        -0.8533583879470825
      ],
      "type": "VEC3"
    },
    {
      "bufferView": 2,
      "byteOffset": 80148,
      "componentType": 5126,
      "count": 6679,
      "max": [
        1.0,
        1.0,
        1.0
      ],
      "min": [
        -1.0,
        -1.0,
        -1.0
      ],
      "type": "VEC3"
    },
    {
      "bufferView": 3,
      "componentType": 5126,
      "count": 6679,
      "max": [
        1.0,
        1.0,
        1.0,
        1.0
      ],
      "min": [
        -1.0,
        -1.0,
        -1.0,
        -1.0
      ],
      "type": "VEC4"
    },
    {
      "bufferView": 1,
      "componentType": 5126,
      "count": 6679,
      "max": [
        0.9970703125,
        0.9973659515380859
      ],
      "min": [
        0.0121612548828125,
        0.005859375
      ],
      "type": "VEC2"
    },
    {
      "bufferView": 1,
      "byteOffset": 53432,
      "componentType": 5126,
      "count": 6679,
      "max": [
        0.9990234375,
        0.9973659515380859
      ],
      "min": [
        0.0121612548828125,
        0.00146484375
      ],
      "type": "VEC2"
    },
    {
      "bufferView": 1,
      "byteOffset": 106864,
      "componentType": 5126,
      "count": 6679,
      "max": [
        0.10498046875,
        0.905029296875
      ],
      "min": [
        0.094970703125,
        0.89501953125
      ],
      "type": "VEC2"
    },
    {
      "bufferView": 1,
      "byteOffset": 160296,
      "componentType": 5126,
      "count": 6679,
      "max": [
        3.0517578125e-05,
        0.0
      ],
      "min": [
        3.0517578125e-05,
        0.0
      ],
      "type": "VEC2"
    },
    {
      "bufferView": 1,
      "byteOffset": 213728,
      "componentType": 5126,
      "count": 6679,
      "max": [
        0.9970703125,
        0.9973659515380859
      ],
      "min": [
        0.0121612548828125,
        0.005859375
      ],
      "type": "VEC2"
    },
    {
      "bufferView": 1,
      "byteOffset": 267160,
      "componentType": 5126,
      "count": 6679,
      "max": [
        0.9970703125,
        0.9973659515380859
      ],
      "min": [
        0.0121612548828125,
        0.005859375
      ],
      "type": "VEC2"
    },
    {
      "bufferView": 1,
      "byteOffset": 320592,
      "componentType": 5126,
      "count": 6679,
      "max": [
        0.9970703125,
        0.9973659515380859
      ],
      "min": [
        0.0121612548828125,
        0.005859375
      ],
      "type": "VEC2"
    },
    {
      "bufferView": 0,
      "componentType": 5125,
      "count": 26100,
      "type": "SCALAR"
    },
    {
      "bufferView": 2,
      "byteOffset": 160296,
      "componentType": 5126,
      "count": 5390,
      "max": [
        -0.9960246682167053,
        0.7984179258346558,
        1.0089410543441772
      ],
      "min": [
        -1.7939099073410034,
        0.0005329051637090743,
        -1.007428765296936
      ],
      "type": "VEC3"
    },
    {
      "bufferView": 2,
      "byteOffset": 224976,
      "componentType": 5126,
      "count": 5390,
      "max": [
        0.9997211694717407,
        0.999721109867096,
        1.0
      ],
      "min": [
        -0.999721109867096,
        -0.9997208714485168,
        -1.0
      ],
      "type": "VEC3"
    },
    {
      "bufferView": 3,
      "byteOffset": 106864,
      "componentType": 5126,
      "count": 5390,
      "max": [
        1.0,
        1.0,
        0.999126136302948,
        1.0
      ],
      "min": [
        -1.0,
        -1.0,
        -0.999126136302948,
        -1.0
      ],
      "type": "VEC4"
    },
    {
      "bufferView": 1,
      "byteOffset": 374024,
      "componentType": 5126,
      "count": 5390,
      "max": [
        0.99267578125,
        0.9896316528320313
      ],
      "min": [
        0.006183624267578125,
        0.00927734375
      ],
      "type": "VEC2"
    },
    {
      "bufferView": 1,
      "byteOffset": 417144,
      "componentType": 5126,
      "count": 5390,
      "max": [
        0.99267578125,
        0.9896316528320313
      ],
      "min": [
        0.006183624267578125,
        0.00927734375
      ],
      "type": "VEC2"
    },
    {
      "bufferView": 1,
      "byteOffset": 460264,
      "componentType": 5126,
      "count": 5390,
      "max": [
        0.60498046875,
        0.605224609375
      ],
      "min": [
        0.394775390625,
        0.59521484375
      ],
      "type": "VEC2"
    },
    {
      "bufferView": 1,
      "byteOffset": 503384,
      "componentType": 5126,
      "count": 5390,
      "max": [
        3.0517578125e-05,
        0.0
      ],
      "min": [
        3.0517578125e-05,
        0.0
      ],
      "type": "VEC2"
    },
    {
      "bufferView": 1,
      "byteOffset": 546504,
      "componentType": 5126,
      "count": 5390,
      "max": [
        0.99267578125,
        0.9896316528320313
      ],
      "min": [
        0.006183624267578125,
        0.00927734375
      ],
      "type": "VEC2"
    },
    {
      "bufferView": 1,
      "byteOffset": 589624,
      "componentType": 5126,
      "count": 5390,
      "max": [
        0.99267578125,
        0.9896316528320313
      ],
      "min": [
        0.006183624267578125,
        0.00927734375
      ],
      "type": "VEC2"
    },
    {
      "bufferView": 1,
      "byteOffset": 632744,
      "componentType": 5126,
      "count": 5390,
      "max": [
        0.99267578125,
        0.9896316528320313
      ],
      "min": [
        0.006183624267578125,
        0.00927734375
      ],
      "type": "VEC2"
    },
    {
      "bufferView": 0,
      "byteOffset": 104400,
      "componentType": 5125,
      "count": 19968,
      "type": "SCALAR"
    },
    {
      "bufferView": 2,
      "byteOffset": 289656,
      "componentType": 5126,
      "count": 11021,
      "max": [
        2.2198541164398193,
        1.3642938137054443,
        0.939681351184845
      ],
      "min": [
        -2.3640706539154053,
        0.35088682174682617,
        -0.939681351184845
      ],
      "type": "VEC3"
    },
    {
      "bufferView": 2,
      "byteOffset": 421908,
      "componentType": 5126,
      "count": 11021,
      "max": [
        1.0,
        1.0,
        0.9999691843986511
      ],
      "min": [
        -0.9999690055847168,
        -1.0,
        -0.9999380111694336
      ],
      "type": "VEC3"
    },
    {
      "bufferView": 3,
      "byteOffset": 193104,
      "componentType": 5126,
      "count": 11021,
      "max": [
        1.0,
        0.9920320510864258,
        1.0,
        1.0
      ],
      "min": [
        -1.0,
        -0.9999668598175049,
        -1.0,
        -1.0
      ],
      "type": "VEC4"
    },
    {
      "bufferView": 1,
      "byteOffset": 675864,
      "componentType": 5126,
      "count": 11021,
      "max": [
        0.99169921875,
        0.995391845703125
      ],
      "min": [
        0.0026760101318359375,
        0.0029296875
      ],
      "type": "VEC2"
    },
    {
      "bufferView": 1,
      "byteOffset": 764032,
      "componentType": 5126,
      "count": 11021,
      "max": [
        0.99169921875,
        0.995391845703125
      ],
      "min": [
        0.0026760101318359375,
        0.0029296875
      ],
      "type": "VEC2"
    },
    {
      "bufferView": 1,
      "byteOffset": 852200,
      "componentType": 5126,
      "count": 11021,
      "max": [
        0.40478515625,
        0.905029296875
      ],
      "min": [
        0.394775390625,
        0.89501953125
      ],
      "type": "VEC2"
    },
    {
      "bufferView": 1,
      "byteOffset": 940368,
      "componentType": 5126,
      "count": 11021,
      "max": [
        0.85546875,
        0.991607666015625
      ],
      "min": [
        3.0517578125e-05,
        0.0
      ],
      "type": "VEC2"
    },
    {
      "bufferView": 1,
      "byteOffset": 1028536,
      "componentType": 5126,
      "count": 11021,
      "max": [
        0.99169921875,
        0.995391845703125
      ],
      "min": [
        0.0026760101318359375,
        0.0029296875
      ],
      "type": "VEC2"
    },
    {
      "bufferView": 1,
      "byteOffset": 1116704,
      "componentType": 5126,
      "count": 11021,
      "max": [
        0.99169921875,
        0.995391845703125
      ],
      "min": [
        0.0026760101318359375,
        0.0029296875
      ],
      "type": "VEC2"
    },
    {
      "bufferView": 1,
      "byteOffset": 1204872,
      "componentType": 5126,
      "count": 11021,
      "max": [
        0.99169921875,
        0.995391845703125
      ],
      "min": [
        0.0026760101318359375,
        0.0029296875
      ],
      "type": "VEC2"
    },
    {
      "bufferView": 0,
      "byteOffset": 184272,
      "componentType": 5125,
      "count": 47646,
      "type": "SCALAR"
    },
    {
      "bufferView": 2,
      "byteOffset": 554160,
      "componentType": 5126,
      "count": 10844,
      "max": [
        1.682727336883545,
        1.4816274642944336,
        0.9374265074729919
      ],
      "min": [
        -1.5983632802963257,
        0.15842407941818237,
        -0.937426745891571
      ],
      "type": "VEC3"
    },
    {
      "bufferView": 2,
      "byteOffset": 684288,
      "componentType": 5126,
      "count": 10844,
      "max": [
        1.0,
        1.0,
        1.0
      ],
      "min": [
        -1.0,
        -0.9999690651893616,
        -1.0
      ],
      "type": "VEC3"
    },
    {
      "bufferView": 3,
      "byteOffset": 369440,
      "componentType": 5126,
      "count": 10844,
      "max": [
        1.0,
        1.0,
        1.0,
        1.0
      ],
      "min": [
        -1.0,
        -1.0,
        -1.0,
        -1.0
      ],
      "type": "VEC4"
    },
    {
      "bufferView": 1,
      "byteOffset": 1293040,
      "componentType": 5126,
      "count": 10844,
      "max": [
        0.99462890625,
        0.9972286224365234
      ],
      "min": [
        0.003063201904296875,
        0.00341796875
      ],
      "type": "VEC2"
    },
    {
      "bufferView": 1,
      "byteOffset": 1379792,
      "componentType": 5126,
      "count": 10844,
      "max": [
        0.99462890625,
        0.9972286224365234
      ],
      "min": [
        0.003063201904296875,
        0.00341796875
      ],
      "type": "VEC2"
    },
    {
      "bufferView": 1,
      "byteOffset": 1466544,
      "componentType": 5126,
      "count": 10844,
      "max": [
        0.60498046875,
        0.905029296875
      ],
      "min": [
        0.5947265625,
        0.89501953125
      ],
      "type": "VEC2"
    },
    {
      "bufferView": 1,
      "byteOffset": 1553296,
      "componentType": 5126,
      "count": 10844,
      "max": [
        3.0517578125e-05,
        0.0
      ],
      "min": [
        3.0517578125e-05,
        0.0
      ],
      "type": "VEC2"
    },
    {
      "bufferView": 1,
      "byteOffset": 1640048,
      "componentType": 5126,
      "count": 10844,
      "max": [
        0.99462890625,
        0.9972286224365234
      ],
      "min": [
        0.003063201904296875,
        0.00341796875
      ],
      "type": "VEC2"
    },
    {
      "bufferView": 1,
      "byteOffset": 1726800,
      "componentType": 5126,
      "count": 10844,
      "max": [
        0.99462890625,
        0.9972286224365234
      ],
      "min": [
        0.003063201904296875,
        0.00341796875
      ],
      "type": "VEC2"
    },
    {
      "bufferView": 1,
      "byteOffset": 1813552,
      "componentType": 5126,
      "count": 10844,
      "max": [
        0.99462890625,
        0.9972286224365234
      ],
      "min": [
        0.003063201904296875,
        0.00341796875
      ],
      "type": "VEC2"
    },
    {
      "bufferView": 0,
      "byteOffset": 374856,
      "componentType": 5125,
      "count": 44145,
      "type": "SCALAR"
    },
    {
      "bufferView": 2,
      "byteOffset": 814416,
      "componentType": 5126,
      "count": 5390,
      "max": [
        1.7360056638717651,
        0.6824954748153687,
        0.9390842914581299
      ],
      "min": [
        1.053931474685669,
        0.0004212784697301686,
        -0.9390845894813538
      ],
      "type": "VEC3"
    },
    {
      "bufferView": 2,
      "byteOffset": 879096,
      "componentType": 5126,
      "count": 5390,
      "max": [
        0.9997212290763855,
        0.9997210502624512,
        1.0
      ],
      "min": [
        -0.999721109867096,
        -0.9997208714485168,
        -1.0
      ],
      "type": "VEC3"
    },
    {
      "bufferView": 1,
      "byteOffset": 1900304,
      "componentType": 5126,
      "count": 5390,
      "max": [
        0.99267578125,
        0.9896316528320313
      ],
      "min": [
        0.006183624267578125,
        0.00927734375
      ],
      "type": "VEC2"
    },
    {
      "bufferView": 1,
      "byteOffset": 1943424,
      "componentType": 5126,
      "count": 5390,
      "max": [
        0.99267578125,
        0.9896316528320313
      ],
      "min": [
        0.006183624267578125,
        0.00927734375
      ],
      "type": "VEC2"
    },
    {
      "bufferView": 1,
      "byteOffset": 1986544,
      "componentType": 5126,
      "count": 5390,
      "max": [
        0.60498046875,
        0.605224609375
      ],
      "min": [
        0.394775390625,
        0.59521484375
      ],
      "type": "VEC2"
    },
    {
      "bufferView": 1,
      "byteOffset": 2029664,
      "componentType": 5126,
      "count": 5390,
      "max": [
        3.0517578125e-05,
        0.0
      ],
      "min": [
        3.0517578125e-05,
        0.0
      ],
      "type": "VEC2"
    },
    {
      "bufferView": 0,
      "byteOffset": 551436,
      "componentType": 5125,
      "count": 19968,
      "type": "SCALAR"
    }
  ],
  "asset": {
    "extras": {
      "author": "rgrimes2686 (https://sketchfab.com/rgrimes2686)",
      "license": "CC-BY-4.0 (http://creativecommons.org/licenses/by/4.0/)",
      "source": "https://sketchfab.com/3d-models/car-005-hotwheels-bike-car-race-free-model-54dc3a0145944142b6c86b7dca20257f",
      "title": "Car_005 HotWheels, Bike, Car Race, Free model"
    },
    "generator": "Sketchfab-15.49.0",
    "version": "2.0"
  },
  "bufferViews": [
    {
      "buffer": 0,
      "byteLength": 631308,
      "name": "floatBufferViews",
      "target": 34963
    },
    {
      "buffer": 0,
      "byteLength": 2072784,
      "byteOffset": 631308,
      "byteStride": 8,
      "name": "floatBufferViews",
      "target": 34962
    },
    {
      "buffer": 0,
      "byteLength": 943776,
      "byteOffset": 2704092,
      "byteStride": 12,
      "name": "floatBufferViews",
      "target": 34962
    },
    {
      "buffer": 0,
      "byteLength": 542944,
      "byteOffset": 3647868,
      "byteStride": 16,
      "name": "floatBufferViews",
      "target": 34962
    }
  ],
  "buffers": [
    {
      "byteLength": 4190812,
      "uri": "scene.bin"
    }
  ],
  "images": [
    {
      "uri": "textures/MI_Chassis_005_baseColor.png"
    },
    {
      "uri": "textures/MI_Chassis_005_metallicRoughness.png"
    },
    {
      "uri": "textures/MI_Chassis_005_normal.png"
    },
    {
      "uri": "textures/MI_B_Wheel_005_baseColor.png"
    },
    {
      "uri": "textures/MI_B_Wheel_005_metallicRoughness.png"
    },
    {
      "uri": "textures/MI_B_Wheel_005_normal.png"
    },
    {
      "uri": "textures/MI_Livery_005_baseColor.png"
    },
    {
      "uri": "textures/MI_Livery_005_metallicRoughness.png"
    },
    {
      "uri": "textures/MI_Livery_005_normal.png"
    },
    {
      "uri": "textures/MI_Interior_005_baseColor.png"
    },
    {
      "uri": "textures/MI_Interior_005_metallicRoughness.png"
    },
    {
      "uri": "textures/MI_Interior_005_normal.png"
    }
  ],
  "materials": [
    {
      "name": "MI_Chassis_005",
      "normalTexture": {
        "index": 2
      },
      "pbrMetallicRoughness": {
        "baseColorTexture": {
          "index": 0
        },
        "metallicFactor": 0.1,
        "metallicRoughnessTexture": {
          "index": 1
        }
      }
    },
    {
      "name": "MI_B_Wheel_005",
      "normalTexture": {
        "index": 5
      },
      "pbrMetallicRoughness": {
        "baseColorTexture": {
          "index": 3
        },
        "metallicFactor": 0.1,
        "metallicRoughnessTexture": {
          "index": 4
        }
      }
    },
    {
      "name": "MI_Livery_005",
      "normalTexture": {
        "index": 8
      },
      "pbrMetallicRoughness": {
        "baseColorTexture": {
          "index": 6
        },
        "metallicRoughnessTexture": {
          "index": 7
        }
      }
    },
    {
      "name": "MI_Interior_005",
      "normalTexture": {
        "index": 11
      },
      "pbrMetallicRoughness": {
        "baseColorTexture": {
          "index": 9
        },
        "metallicFactor": 0.1,
        "metallicRoughnessTexture": {
          "index": 10
        }
      }
    },
    {
      "name": "MI_F_Wheel_005",
      "pbrMetallicRoughness": {
        "metallicFactor": 0.1,
        "roughnessFactor": 0.5
      }
    }
  ],
  "meshes": [
    {
      "name": "Object_0",
      "primitives": [
        {
          "attributes": {
            "NORMAL": 1,
            "POSITION": 0,
            "TANGENT": 2,
            "TEXCOORD_0": 3,
            "TEXCOORD_1": 4,
            "TEXCOORD_2": 5,
            "TEXCOORD_3": 6,
            "TEXCOORD_4": 7,
            "TEXCOORD_5": 8,
            "TEXCOORD_6": 9
          },
          "indices": 10,
          "material": 0,
          "mode": 4
        }
      ]
    },
    {
      "name": "Object_1",
      "primitives": [
        {
          "attributes": {
            "NORMAL": 12,
            "POSITION": 11,
            "TANGENT": 13,
            "TEXCOORD_0": 14,
            "TEXCOORD_1": 15,
            "TEXCOORD_2": 16,
            "TEXCOORD_3": 17,
            "TEXCOORD_4": 18,
            "TEXCOORD_5": 19,
            "TEXCOORD_6": 20
          },
          "indices": 21,
          "material": 1,
          "mode": 4
        }
      ]
    },
    {
      "name": "Object_2",
      "primitives": [
        {
          "attributes": {
            "NORMAL": 23,
            "POSITION": 22,
            "TANGENT": 24,
            "TEXCOORD_0": 25,
            "TEXCOORD_1": 26,
            "TEXCOORD_2": 27,
            "TEXCOORD_3": 28,
            "TEXCOORD_4": 29,
            "TEXCOORD_5": 30,
            "TEXCOORD_6": 31
          },
          "indices": 32,
          "material": 2,
          "mode": 4
        }
      ]
    },
    {
      "name": "Object_3",
      "primitives": [
        {
          "attributes": {
            "NORMAL": 34,
            "POSITION": 33,
            "TANGENT": 35,
            "TEXCOORD_0": 36,
            "TEXCOORD_1": 37,
            "TEXCOORD_2": 38,
            "TEXCOORD_3": 39,
            "TEXCOORD_4": 40,
            "TEXCOORD_5": 41,
            "TEXCOORD_6": 42
          },
          "indices": 43,
          "material": 3,
          "mode": 4
        }
      ]
    },
    {
      "name": "Object_4",
      "primitives": [
        {
          "attributes": {
            "NORMAL": 45,
            "POSITION": 44,
            "TEXCOORD_0": 46,
            "TEXCOORD_1": 47,
            "TEXCOORD_2": 48,
            "TEXCOORD_3": 49
          },
          "indices": 50,
          "material": 4,
          "mode": 4
        }
      ]
    }
  ],
  "nodes": [
    {
      "children": [
        1
      ],
      "matrix": [
        1.0,
        0.0,
        0.0,
        0.0,
        0.0,
        2.220446049250313e-16,
        -1.0,
        0.0,
        0.0,
        1.0,
        2.220446049250313e-16,
        0.0,
        0.0,
        0.0,
        0.0,
        1.0
      ],
      "name": "Sketchfab_model"
    },
    {
      "children": [
        2
      ],
      "name": "root"
    },
    {
      "children": [
        3
      ],
      "matrix": [
        1.0,
        0.0,
        0.0,
        0.0,
        0.0,
        2.220446049250313e-16,
        1.0,
        0.0,
        0.0,
        -1.0,
        2.220446049250313e-16,
        0.0,
        0.0,
        0.0,
        0.0,
        1.0
      ],
      "name": "GLTF_SceneRootNode"
    },
    {
      "children": [
        4,
        5,
        6,
        7,
        8
      ],
      "name": "Car_005.001_0"
    },
    {
      "mesh": 0,
      "name": "Object_4"
    },
    {
      "mesh": 1,
      "name": "Object_5"
    },
    {
      "mesh": 2,
      "name": "Object_6"
    },
    {
      "mesh": 3,
      "name": "Object_7"
    },
    {
      "mesh": 4,
      "name": "Object_8"
    }
  ],
  "samplers": [
    {
      "magFilter": 9729,
      "minFilter": 9987,
      "wrapS": 10497,
      "wrapT": 10497
    }
  ],
  "scene": 0,
  "scenes": [
    {
      "name": "Sketchfab_Scene",
      "nodes": [
        0
      ]
    }
  ],
  "textures": [
    {
      "sampler": 0,
      "source": 0
    },
    {
      "sampler": 0,
      "source": 1
    },
    {
      "sampler": 0,
      "source": 2
    },
    {
      "sampler": 0,
      "source": 3
    },
    {
      "sampler": 0,
      "source": 4
    },
    {
      "sampler": 0,
      "source": 5
    },
    {
      "sampler": 0,
      "source": 6
    },
    {
      "sampler": 0,
      "source": 7
    },
    {
      "sampler": 0,
      "source": 8
    },
    {
      "sampler": 0,
      "source": 9
    },
    {
      "sampler": 0,
      "source": 10
    },
    {
      "sampler": 0,
      "source": 11
    }
  ]
}
