{
  "accessors": [
    {
      "bufferView": 2,
      "componentType": 5126,
      "count": 8472,
      "max": [
        2.0228264331817627,
        0.7376464605331421,
        0.8615827560424805
      ],
      "min": [
        -2.427988290786743,
        0.08678367733955383,
        -0.8615829944610596
      ],
      "type": "VEC3"
    },
    {
      "bufferView": 2,
      "byteOffset": 101664,
      "componentType": 5126,
      "count": 8472,
      "max": [
        1.0,
        1.0,
        1.0
      ],
      "min": [
        -1.0,
        -1.0,
        -1.0
      ],
      "type": "VEC3"
    },
    {
      "bufferView": 3,
      "componentType": 5126,
      "count": 8472,
      "max": [
        1.0,
        0.9995054006576538,
        1.0,
        1.0
      ],
      "min": [
        -1.0,
        -1.0,
        -1.0,
        -1.0
      ],
      "type": "VEC4"
    },
    {
      "bufferView": 1,
      "componentType": 5126,
      "count": 8472,
      "max": [
        0.99658203125,
        0.9982223510742188
      ],
      "min": [
        0.0011272430419921875,
        0.0009765625
      ],
      "type": "VEC2"
    },
    {
      "bufferView": 1,
      "byteOffset": 67776,
      "componentType": 5126,
      "count": 8472,
      "max": [
        0.9990234375,
        0.9982223510742188
      ],
      "min": [
        0.0011272430419921875,
        0.0009765625
      ],
      "type": "VEC2"
    },
    {
      "bufferView": 1,
      "byteOffset": 135552,
      "componentType": 5126,
      "count": 8472,
      "max": [
        0.10498046875,
        0.905029296875
      ],
      "min": [
        0.094970703125,
        0.89501953125
      ],
      "type": "VEC2"
    },
    {
      "bufferView": 1,
      "byteOffset": 203328,
      "componentType": 5126,
      "count": 8472,
      "max": [
        0.00188446044921875,
        0.00146484375
      ],
      "min": [
        3.0517578125e-05,
        0.0
      ],
      "type": "VEC2"
    },
    {
      "bufferView": 1,
      "byteOffset": 271104,
      "componentType": 5126,
      "count": 8472,
      "max": [
        0.99658203125,
        0.9982223510742188
      ],
      "min": [
        0.0011272430419921875,
        0.0009765625
      ],
      "type": "VEC2"
    },
    {
      "bufferView": 1,
      "byteOffset": 338880,
      "componentType": 5126,
      "count": 8472,
      "max": [
        0.99658203125,
        0.9982223510742188
      ],
      "min": [
        0.0011272430419921875,
        0.0009765625
      ],
      "type": "VEC2"
    },
    {
      "bufferView": 1,
      "byteOffset": 406656,
      "componentType": 5126,
      "count": 8472,
      "max": [
        0.99658203125,
        0.9982223510742188
      ],
      "min": [
        0.0011272430419921875,
        0.0009765625
      ],
      "type": "VEC2"
    },
    {
      "bufferView": 0,
      "componentType": 5125,
      "count": 9882,
      "type": "SCALAR"
    },
    {
      "bufferView": 2,
      "byteOffset": 203328,
      "componentType": 5126,
      "count": 12100,
      "max": [
        -0.9436878561973572,
        0.8063504099845886,
        1.0040960311889648
      ],
      "min": [
        -1.749092936515808,
        0.0009468078496865928,
        -1.0040955543518066
      ],
      "type": "VEC3"
    },
    {
      "bufferView": 2,
      "byteOffset": 348528,
      "componentType": 5126,
      "count": 12100,
      "max": [
        1.0,
        1.0,
        1.0
      ],
      "min": [
        -1.0,
        -1.0,
        -1.0
      ],
      "type": "VEC3"
    },
    {
      "bufferView": 3,
      "byteOffset": 135552,
      "componentType": 5126,
      "count": 12100,
      "max": [
        1.0,
        1.0,
        1.0,
        1.0
      ],
      "min": [
        -1.0,
        -1.0,
        -1.0,
        1.0
      ],
      "type": "VEC4"
    },
    {
      "bufferView": 1,
      "byteOffset": 474432,
      "componentType": 5126,
      "count": 12100,
      "max": [
        0.9931640625,
        0.9928703308105469
      ],
      "min": [
        0.00194549560546875,
        0.00439453125
      ],
      "type": "VEC2"
    },
    {
      "bufferView": 1,
      "byteOffset": 571232,
      "componentType": 5126,
      "count": 12100,
      "max": [
        0.9931640625,
        0.9928703308105469
      ],
      "min": [
        0.00194549560546875,
        0.00439453125
      ],
      "type": "VEC2"
    },
    {
      "bufferView": 1,
      "byteOffset": 668032,
      "componentType": 5126,
      "count": 12100,
      "max": [
        0.60498046875,
        0.605224609375
      ],
      "min": [
        0.394775390625,
        0.59521484375
      ],
      "type": "VEC2"
    },
    {
      "bufferView": 1,
      "byteOffset": 764832,
      "componentType": 5126,
      "count": 12100,
      "max": [
        0.002719879150390625,
        0.00341796875
      ],
      "min": [
        0.002719879150390625,
        0.00341796875
      ],
      "type": "VEC2"
    },
    {
      "bufferView": 1,
      "byteOffset": 861632,
      "componentType": 5126,
      "count": 12100,
      "max": [
        0.9931640625,
        0.9928703308105469
      ],
      "min": [
        0.00194549560546875,
        0.00439453125
      ],
      "type": "VEC2"
    },
    {
      "bufferView": 1,
      "byteOffset": 958432,
      "componentType": 5126,
      "count": 12100,
      "max": [
        0.9931640625,
        0.9928703308105469
      ],
      "min": [
        0.00194549560546875,
        0.00439453125
      ],
      "type": "VEC2"
    },
    {
      "bufferView": 1,
      "byteOffset": 1055232,
      "componentType": 5126,
      "count": 12100,
      "max": [
        0.9931640625,
        0.9928703308105469
      ],
      "min": [
        0.00194549560546875,
        0.00439453125
      ],
      "type": "VEC2"
    },
    {
      "bufferView": 0,
      "byteOffset": 39528,
      "componentType": 5125,
      "count": 13890,
      "type": "SCALAR"
    },
    {
      "bufferView": 2,
      "byteOffset": 493728,
      "componentType": 5126,
      "count": 46443,
      "max": [
        1.9814453125,
        1.2621080875396729,
        0.9772307872772217
      ],
      "min": [
        -2.725876808166504,
        0.12691375613212585,
        -0.9772307276725769
      ],
      "type": "VEC3"
    },
    {
      "bufferView": 2,
      "byteOffset": 1051044,
      "componentType": 5126,
      "count": 46443,
      "max": [
        1.0,
        1.0,
        1.0
      ],
      "min": [
        -1.0,
        -1.0,
        -1.0
      ],
      "type": "VEC3"
    },
    {
      "bufferView": 3,
      "byteOffset": 329152,
      "componentType": 5126,
      "count": 46443,
      "max": [
        1.0,
        1.0,
        1.0,
        1.0
      ],
      "min": [
        -1.0,
        -0.9999995827674866,
        -1.0,
        -1.0
      ],
      "type": "VEC4"
    },
    {
      "bufferView": 1,
      "byteOffset": 1152032,
      "componentType": 5126,
      "count": 46443,
      "max": [
        0.99755859375,
        0.9982728958129883
      ],
      "min": [
        0.0008220672607421875,
        0.00244140625
      ],
      "type": "VEC2"
    },
    {
      "bufferView": 1,
      "byteOffset": 1523576,
      "componentType": 5126,
      "count": 46443,
      "max": [
        0.99755859375,
        0.9982728958129883
      ],
      "min": [
        0.0008220672607421875,
        0.00244140625
      ],
      "type": "VEC2"
    },
    {
      "bufferView": 1,
      "byteOffset": 1895120,
      "componentType": 5126,
      "count": 46443,
      "max": [
        0.40478515625,
        0.905029296875
      ],
      "min": [
        0.394775390625,
        0.89501953125
      ],
      "type": "VEC2"
    },
    {
      "bufferView": 1,
      "byteOffset": 2266664,
      "componentType": 5126,
      "count": 46443,
      "max": [
        0.99365234375,
        0.9978294372558594
      ],
      "min": [
        3.0517578125e-05,
        0.0
      ],
      "type": "VEC2"
    },
    {
      "bufferView": 1,
      "byteOffset": 2638208,
      "componentType": 5126,
      "count": 46443,
      "max": [
        0.99755859375,
        0.9982728958129883
      ],
      "min": [
        0.0008220672607421875,
        0.00244140625
      ],
      "type": "VEC2"
    },
    {
      "bufferView": 1,
      "byteOffset": 3009752,
      "componentType": 5126,
      "count": 46443,
      "max": [
        0.99755859375,
        0.9982728958129883
      ],
      "min": [
        0.0008220672607421875,
        0.00244140625
      ],
      "type": "VEC2"
    },
    {
      "bufferView": 1,
      "byteOffset": 3381296,
      "componentType": 5126,
      "count": 46443,
      "max": [
        0.99755859375,
        0.9982728958129883
      ],
      "min": [
        0.0008220672607421875,
        0.00244140625
      ],
      "type": "VEC2"
    },
    {
      "bufferView": 0,
      "byteOffset": 95088,
      "componentType": 5125,
      "count": 48882,
      "type": "SCALAR"
    },
    {
      "bufferView": 2,
      "byteOffset": 1608360,
      "componentType": 5126,
      "count": 11452,
      "max": [
        1.6956942081451416,
        0.7050676345825195,
        1.003258466720581
      ],
      "min": [
        0.9970793724060059,
        0.006454162299633026,
        -1.0031741857528687
      ],
      "type": "VEC3"
    },
    {
      "bufferView": 2,
      "byteOffset": 1745784,
      "componentType": 5126,
      "count": 11452,
      "max": [
        1.0,
        1.0,
        1.0
      ],
      "min": [
        -1.0,
        -1.0,
        -1.0
      ],
      "type": "VEC3"
    },
    {
      "bufferView": 3,
      "byteOffset": 1072240,
      "componentType": 5126,
      "count": 11452,
      "max": [
        1.0,
        1.0,
        1.0,
        1.0
      ],
      "min": [
        -1.0,
        -1.0,
        -1.0,
        1.0
      ],
      "type": "VEC4"
    },
    {
      "bufferView": 1,
      "byteOffset": 3752840,
      "componentType": 5126,
      "count": 11452,
      "max": [
        0.9970703125,
        0.9983739852905273
      ],
      "min": [
        0.0018262863159179688,
        0.00390625
      ],
      "type": "VEC2"
    },
    {
      "bufferView": 1,
      "byteOffset": 3844456,
      "componentType": 5126,
      "count": 11452,
      "max": [
        0.9970703125,
        0.9983739852905273
      ],
      "min": [
        0.0018262863159179688,
        0.00390625
      ],
      "type": "VEC2"
    },
    {
      "bufferView": 1,
      "byteOffset": 3936072,
      "componentType": 5126,
      "count": 11452,
      "max": [
        0.60498046875,
        0.605224609375
      ],
      "min": [
        0.394775390625,
        0.59521484375
      ],
      "type": "VEC2"
    },
    {
      "bufferView": 1,
      "byteOffset": 4027688,
      "componentType": 5126,
      "count": 11452,
      "max": [
        0.002719879150390625,
        0.00341796875
      ],
      "min": [
        0.002719879150390625,
        0.00341796875
      ],
      "type": "VEC2"
    },
    {
      "bufferView": 1,
      "byteOffset": 4119304,
      "componentType": 5126,
      "count": 11452,
      "max": [
        0.9970703125,
        0.9983739852905273
      ],
      "min": [
        0.0018262863159179688,
        0.00390625
      ],
      "type": "VEC2"
    },
    {
      "bufferView": 1,
      "byteOffset": 4210920,
      "componentType": 5126,
      "count": 11452,
      "max": [
        0.9970703125,
        0.9983739852905273
      ],
      "min": [
        0.0018262863159179688,
        0.00390625
      ],
      "type": "VEC2"
    },
    {
      "bufferView": 1,
      "byteOffset": 4302536,
      "componentType": 5126,
      "count": 11452,
      "max": [
        0.9970703125,
        0.9983739852905273
      ],
      "min": [
        0.0018262863159179688,
        0.00390625
      ],
      "type": "VEC2"
    },
    {
      "bufferView": 0,
      "byteOffset": 290616,
      "componentType": 5125,
      "count": 13632,
      "type": "SCALAR"
    },
    {
      "bufferView": 2,
      "byteOffset": 1883208,
      "componentType": 5126,
      "count": 25852,
      "max": [
        1.7927976846694946,
        1.1581515073776245,
        0.763637900352478
      ],
      "min": [
        -2.1390445232391357,
        0.2873678505420685,
        -0.7640711665153503
      ],
      "type": "VEC3"
    },
    {
      "bufferView": 2,
      "byteOffset": 2193432,
      "componentType": 5126,
      "count": 25852,
      "max": [
        1.0,
        1.0,
        1.0
      ],
      "min": [
        -1.0,
        -1.0,
        -1.0
      ],
      "type": "VEC3"
    },
    {
      "bufferView": 3,
      "byteOffset": 1255472,
      "componentType": 5126,
      "count": 25852,
      "max": [
        1.0,
        1.0,
        1.0,
        1.0
      ],
      "min": [
        -1.0,
        -1.0,
        -1.0,
        -1.0
      ],
      "type": "VEC4"
    },
    {
      "bufferView": 1,
      "byteOffset": 4394152,
      "componentType": 5126,
      "count": 25852,
      "max": [
        0.998046875,
        0.9989452362060547
      ],
      "min": [
        0.0010166168212890625,
        0.00146484375
      ],
      "type": "VEC2"
    },
    {
      "bufferView": 1,
      "byteOffset": 4600968,
      "componentType": 5126,
      "count": 25852,
      "max": [
        0.998046875,
        0.9989452362060547
      ],
      "min": [
        0.0010166168212890625,
        0.00146484375
      ],
      "type": "VEC2"
    },
    {
      "bufferView": 1,
      "byteOffset": 4807784,
      "componentType": 5126,
      "count": 25852,
      "max": [
        0.60498046875,
        0.905029296875
      ],
      "min": [
        0.5947265625,
        0.89501953125
      ],
      "type": "VEC2"
    },
    {
      "bufferView": 1,
      "byteOffset": 5014600,
      "componentType": 5126,
      "count": 25852,
      "max": [
        0.00246429443359375,
        0.001953125
      ],
      "min": [
        0.0017871856689453125,
        0.00146484375
      ],
      "type": "VEC2"
    },
    {
      "bufferView": 1,
      "byteOffset": 5221416,
      "componentType": 5126,
      "count": 25852,
      "max": [
        0.998046875,
        0.9989452362060547
      ],
      "min": [
        0.0010166168212890625,
        0.00146484375
      ],
      "type": "VEC2"
    },
    {
      "bufferView": 1,
      "byteOffset": 5428232,
      "componentType": 5126,
      "count": 25852,
      "max": [
        0.998046875,
        0.9989452362060547
      ],
      "min": [
        0.0010166168212890625,
        0.00146484375
      ],
      "type": "VEC2"
    },
    {
      "bufferView": 1,
      "byteOffset": 5635048,
      "componentType": 5126,
      "count": 25852,
      "max": [
        0.998046875,
        0.9989452362060547
      ],
      "min": [
        0.0010166168212890625,
        0.00146484375
      ],
      "type": "VEC2"
    },
    {
      "bufferView": 0,
      "byteOffset": 345144,
      "componentType": 5125,
      "count": 27258,
      "type": "SCALAR"
    }
  ],
  "asset": {
    "extras": {
      "author": "rgrimes2686 (https://sketchfab.com/rgrimes2686)",
      "license": "CC-BY-4.0 (http://creativecommons.org/licenses/by/4.0/)",
      "source": "https://sketchfab.com/3d-models/car-003-hotwheels-bike-car-race-free-model-9f3522623cf8430a8e171a1fc8b7c5df",
      "title": "Car_003 HotWheels, Bike, Car Race, Free model"
    },
    "generator": "Sketchfab-15.49.0",
    "version": "2.0"
  },
  "bufferViews": [
    {
      "buffer": 0,
      "byteLength": 454176,
      "name": "floatBufferViews",
      "target": 34963
    },
    {
      "buffer": 0,
      "byteLength": 5841864,
      "byteOffset": 454176,
      "byteStride": 8,
      "name": "floatBufferViews",
      "target": 34962
    },
    {
      "buffer": 0,
      "byteLength": 2503656,
      "byteOffset": 6296040,
      "byteStride": 12,
      "name": "floatBufferViews",
      "target": 34962
    },
    {
      "buffer": 0,
      "byteLength": 1669104,
      "byteOffset": 8799696,
      "byteStride": 16,
      "name": "floatBufferViews",
      "target": 34962
    }
  ],
  "buffers": [
    {
      "byteLength": 10468800,
      "uri": "scene.bin"
    }
  ],
  "images": [
    {
      "uri": "textures/MI_Chassis_003_baseColor.png"
    },
    {
      "uri": "textures/MI_Chassis_003_metallicRoughness.png"
    },
    {
      "uri": "textures/MI_Chassis_003_normal.png"
    },
    {
      "uri": "textures/MI_B_Wheel_003_baseColor.png"
    },
    {
      "uri": "textures/MI_B_Wheel_003_metallicRoughness.png"
    },
    {
      "uri": "textures/MI_B_Wheel_003_normal.png"
    },
    {
      "uri": "textures/MI_Livery_003_baseColor.png"
    },
    {
      "uri": "textures/MI_Livery_003_metallicRoughness.png"
    },
    {
      "uri": "textures/MI_Livery_003_normal.png"
    },
    {
      "uri": "textures/MI_F_Wheel_003_baseColor.png"
    },
    {
      "uri": "textures/MI_F_Wheel_003_metallicRoughness.png"
    },
    {
      "uri": "textures/MI_F_Wheel_003_normal.png"
    },
    {
      "uri": "textures/MI_Interior_003_baseColor.png"
    },
    {
      "uri": "textures/MI_Interior_003_metallicRoughness.png"
    },
    {
      "uri": "textures/MI_Interior_003_normal.png"
    }
  ],
  "materials": [
    {
      "name": "MI_Chassis_003",
      "normalTexture": {
        "index": 2
      },
      "pbrMetallicRoughness": {
        "baseColorTexture": {
          "index": 0
        },
        "metallicRoughnessTexture": {
          "index": 1
        }
      }
    },
    {
      "name": "MI_B_Wheel_003",
      "normalTexture": {
        "index": 5
      },
      "pbrMetallicRoughness": {
        "baseColorTexture": {
          "index": 3
        },
        "metallicRoughnessTexture": {
          "index": 4
        }
      }
    },
    {
      "name": "MI_Livery_003",
      "normalTexture": {
        "index": 8
      },
      "pbrMetallicRoughness": {
        "baseColorTexture": {
          "index": 6
        },
        "metallicRoughnessTexture": {
          "index": 7
        }
      }
    },
    {
      "name": "MI_F_Wheel_003",
      "normalTexture": {
        "index": 11
      },
      "pbrMetallicRoughness": {
        "baseColorTexture": {
          "index": 9
        },
        "metallicRoughnessTexture": {
          "index": 10
        }
      }
    },
    {
      "name": "MI_Interior_003",
      "normalTexture": {
        "index": 14
      },
      "pbrMetallicRoughness": {
        "baseColorTexture": {
          "index": 12
        },
        "metallicRoughnessTexture": {
          "index": 13
        }
      }
    }
  ],
  "meshes": [
    {
      "name": "Object_0",
      "primitives": [
        {
          "attributes": {
            "NORMAL": 1,
            "POSITION": 0,
            "TANGENT": 2,
            "TEXCOORD_0": 3,
            "TEXCOORD_1": 4,
            "TEXCOORD_2": 5,
            "TEXCOORD_3": 6,
            "TEXCOORD_4": 7,
            "TEXCOORD_5": 8,
            "TEXCOORD_6": 9
          },
          "indices": 10,
          "material": 0,
          "mode": 4
        }
      ]
    },
    {
      "name": "Object_1",
      "primitives": [
        {
          "attributes": {
            "NORMAL": 12,
            "POSITION": 11,
            "TANGENT": 13,
            "TEXCOORD_0": 14,
            "TEXCOORD_1": 15,
            "TEXCOORD_2": 16,
            "TEXCOORD_3": 17,
            "TEXCOORD_4": 18,
            "TEXCOORD_5": 19,
            "TEXCOORD_6": 20
          },
          "indices": 21,
          "material": 1,
          "mode": 4
        }
      ]
    },
    {
      "name": "Object_2",
      "primitives": [
        {
          "attributes": {
            "NORMAL": 23,
            "POSITION": 22,
            "TANGENT": 24,
            "TEXCOORD_0": 25,
            "TEXCOORD_1": 26,
            "TEXCOORD_2": 27,
            "TEXCOORD_3": 28,
            "TEXCOORD_4": 29,
            "TEXCOORD_5": 30,
            "TEXCOORD_6": 31
          },
          "indices": 32,
          "material": 2,
          "mode": 4
        }
      ]
    },
    {
      "name": "Object_3",
      "primitives": [
        {
          "attributes": {
            "NORMAL": 34,
            "POSITION": 33,
            "TANGENT": 35,
            "TEXCOORD_0": 36,
            "TEXCOORD_1": 37,
            "TEXCOORD_2": 38,
            "TEXCOORD_3": 39,
            "TEXCOORD_4": 40,
            "TEXCOORD_5": 41,
            "TEXCOORD_6": 42
          },
          "indices": 43,
          "material": 3,
          "mode": 4
        }
      ]
    },
    {
      "name": "Object_4",
      "primitives": [
        {
          "attributes": {
            "NORMAL": 45,
            "POSITION": 44,
            "TANGENT": 46,
            "TEXCOORD_0": 47,
            "TEXCOORD_1": 48,
            "TEXCOORD_2": 49,
            "TEXCOORD_3": 50,
            "TEXCOORD_4": 51,
            "TEXCOORD_5": 52,
            "TEXCOORD_6": 53
          },
          "indices": 54,
          "material": 4,
          "mode": 4
        }
      ]
    }
  ],
  "nodes": [
    {
      "children": [
        1
      ],
      "matrix": [
        1.0,
        0.0,
        0.0,
        0.0,
        0.0,
        2.220446049250313e-16,
        -1.0,
        0.0,
        0.0,
        1.0,
        2.220446049250313e-16,
        0.0,
        0.0,
        0.0,
        0.0,
        1.0
      ],
      "name": "Sketchfab_model"
    },
    {
      "children": [
        2
      ],
      "name": "root"
    },
    {
      "children": [
        3
      ],
      "matrix": [
        1.0,
        0.0,
        0.0,
        0.0,
        0.0,
        2.220446049250313e-16,
        1.0,
        0.0,
        0.0,
        -1.0,
        2.220446049250313e-16,
        0.0,
        0.0,
        0.0,
        0.0,
        1.0
      ],
      "name": "GLTF_SceneRootNode"
    },
    {
      "children": [
        4,
        5,
        6,
        7,
        8
      ],
      "name": "Car_003.001_0"
    },
    {
      "mesh": 0,
      "name": "Object_4"
    },
    {
      "mesh": 1,
      "name": "Object_5"
    },
    {
      "mesh": 2,
      "name": "Object_6"
    },
    {
      "mesh": 3,
      "name": "Object_7"
    },
    {
      "mesh": 4,
      "name": "Object_8"
    }
  ],
  "samplers": [
    {
      "magFilter": 9729,
      "minFilter": 9987,
      "wrapS": 10497,
      "wrapT": 10497
    }
  ],
  "scene": 0,
  "scenes": [
    {
      "name": "Sketchfab_Scene",
      "nodes": [
        0
      ]
    }
  ],
  "textures": [
    {
      "sampler": 0,
      "source": 0
    },
    {
      "sampler": 0,
      "source": 1
    },
    {
      "sampler": 0,
      "source": 2
    },
    {
      "sampler": 0,
      "source": 3
    },
    {
      "sampler": 0,
      "source": 4
    },
    {
      "sampler": 0,
      "source": 5
    },
    {
      "sampler": 0,
      "source": 6
    },
    {
      "sampler": 0,
      "source": 7
    },
    {
      "sampler": 0,
      "source": 8
    },
    {
      "sampler": 0,
      "source": 9
    },
    {
      "sampler": 0,
      "source": 10
    },
    {
      "sampler": 0,
      "source": 11
    },
    {
      "sampler": 0,
      "source": 12
    },
    {
      "sampler": 0,
      "source": 13
    },
    {
      "sampler": 0,
      "source": 14
    }
  ]
}
